<?xml version="1.0" encoding="utf-8"?>
<!-- Generator: Adobe Illustrator 18.1.0, SVG Export Plug-In . SVG Version: 6.00 Build 0)  -->
<!DOCTYPE svg PUBLIC "-//W3C//DTD SVG 1.1//EN" "http://www.w3.org/Graphics/SVG/1.1/DTD/svg11.dtd">
<svg version="1.1" id="Layer_1" xmlns="http://www.w3.org/2000/svg" xmlns:xlink="http://www.w3.org/1999/xlink" x="0px" y="0px"
	 viewBox="0 0 3823.4 883.2" enable-background="new 0 0 3823.4 883.2" xml:space="preserve">
<g>
	<path fill="#625A56" d="M122.3,387.2c27.7-33.2,61-49.8,99.9-49.8c45.7,0,81.1,16.2,106.1,48.6c25.1,32.4,37.6,76.2,37.6,131.4
		c0,57.4-14,102.7-42,136c-28,33.3-63.3,49.9-106,49.9c-37.8,0-69.7-11.8-95.6-35.3v161.5H60V345.4h62.3V387.2z M122.3,612
		c26.6,28.3,57.1,42.5,91.6,42.5c26.8,0,48.1-11.5,63.9-34.4c15.8-23,23.7-57.2,23.7-102.7c0-43.1-7.5-75.8-22.4-98.1
		c-14.9-22.3-35.8-33.5-62.6-33.5c-34.5,0-65.9,20-94.3,60V612z"/>
	<path fill="#625A56" d="M617,402.1c-8.8-2.6-21.4-4-37.9-4c-31.6,0-58.8,16.6-81.4,49.8v247.2h-62.3V345.4h62.3v48.8
		c26.1-37.8,56.5-56.7,91-56.7c8.8,0,18.2,0.9,28.3,2.6V402.1z"/>
	<path fill="#625A56" d="M881.7,659.1c-31.6,29.4-72.4,44.2-122.3,44.2c-34.7,0-63.3-9.4-85.7-28.2c-22.4-18.8-33.6-43-33.6-72.7
		c0-81.7,70.4-122.6,211.3-122.6h30.3c0-25-1.3-43.2-4-54.6c-2.6-11.3-10-20.7-22.1-28.2c-12.1-7.5-31.3-11.2-57.7-11.2
		c-55.4,0-83.9,19.8-85.7,59.3h-62c4.6-71.9,54.9-107.8,151-107.8c44.8,0,79.8,8.9,104.8,26.7c25.1,17.8,37.6,52.7,37.6,104.8v226.1
		h-62V659.1z M881.7,603.1v-77.5h-42.5c-90.1,0-135.1,24.5-135.1,73.5c0,17.8,6.6,31.5,19.8,41c13.2,9.6,31,14.3,53.4,14.3
		c20.4,0,40.2-4.6,59.3-13.8C855.7,631.5,870.7,618.9,881.7,603.1z"/>
	<path fill="#625A56" d="M1319.1,668c0,112.5-50.8,168.8-152.3,168.8c-44,0-78.6-9.6-104-28.7c-25.4-19.1-38.1-44.8-38.1-77.1h64.3
		c0,38.2,25.7,57.4,77.1,57.4c29,0,51.4-8,67.2-23.9c15.8-15.9,23.7-47.2,23.7-93.8v-17.5c-27.7,33.4-61,50.1-99.9,50.1
		c-45.7,0-81.1-16.3-106.1-48.8c-25.1-32.5-37.6-76.4-37.6-131.5c0-57.1,14-102.3,42-135.6c28-33.3,63.2-49.9,105.6-49.9
		c37.8,0,69.8,11.6,95.9,34.9v-27h62V668z M1257.1,594.5V428.4c-26.8-28.3-57.5-42.5-92-42.5c-26.6,0-47.9,11.5-63.8,34.4
		c-15.9,23-23.9,57.2-23.9,102.7c0,43.1,7.5,75.8,22.6,98.1c15,22.3,35.9,33.5,62.5,33.5C1197.3,654.5,1228.8,634.5,1257.1,594.5z"
		/>
	<path fill="#625A56" d="M1883.7,695.1h-62.3V469c0-29-4.2-49.7-12.5-62c-8.4-12.3-22.3-18.5-41.9-18.5c-30.1,0-59.7,18.7-88.7,56
		v250.5h-62V469c0-29-4.2-49.7-12.5-62c-8.4-12.3-22.4-18.5-42.2-18.5c-30.1,0-59.6,18.7-88.3,56v250.5h-62.3V345.4h62.3v44.5
		c29.4-34.9,62.1-52.4,97.9-52.4c51.2,0,83.8,21.1,97.9,63.3c23.3-27.5,43.1-44.9,59.3-52.2c16.3-7.4,32.2-11,47.8-11
		c71.6,0,107.5,43,107.5,128.9V695.1z"/>
	<path fill="#625A56" d="M2194.9,659.1c-31.6,29.4-72.4,44.2-122.3,44.2c-34.7,0-63.3-9.4-85.7-28.2c-22.4-18.8-33.6-43-33.6-72.7
		c0-81.7,70.4-122.6,211.3-122.6h30.3c0-25-1.3-43.2-4-54.6c-2.6-11.3-10-20.7-22.1-28.2c-12.1-7.5-31.3-11.2-57.7-11.2
		c-55.4,0-83.9,19.8-85.7,59.3h-62c4.6-71.9,54.9-107.8,151-107.8c44.8,0,79.8,8.9,104.8,26.7c25.1,17.8,37.6,52.7,37.6,104.8v226.1
		h-62V659.1z M2194.9,603.1v-77.5h-42.5c-90.1,0-135.1,24.5-135.1,73.5c0,17.8,6.6,31.5,19.8,41c13.2,9.6,31,14.3,53.4,14.3
		c20.4,0,40.2-4.6,59.3-13.8C2168.8,631.5,2183.9,618.9,2194.9,603.1z"/>
	<path fill="#625A56" d="M2473.7,703.3c-95.6,0-145.6-37.6-150-112.7h62.3c0.4,42.6,29.4,63.9,87,63.9c25.7,0,45.3-5.3,58.8-16
		c13.5-10.7,20.3-24,20.3-40c0-15.8-6.6-27-19.8-33.5c-13.2-6.5-40.4-14.9-81.6-25.2c-41.2-10.3-71.3-21.9-90.3-34.6
		c-19-12.7-28.5-35.2-28.5-67.2c0-29,11.8-53,35.4-72c23.6-19,55.2-28.5,94.8-28.5c91.6,0,138.4,32.6,140.4,97.9h-62
		c-2.2-33-26.9-49.4-74.2-49.4c-20.9,0-38.2,4-51.9,11.9c-13.7,7.9-20.6,19.4-20.6,34.6c0,13.6,5.3,23.5,15.8,29.5
		c10.5,6,37,14.2,79.3,24.4c42.3,10.2,73.7,22.1,94.3,35.8c20.5,13.6,30.8,37.1,30.8,70.5c0,31.9-12.7,58.3-38.1,79.3
		C2550.7,692.8,2516.6,703.3,2473.7,703.3z"/>
	<path fill="#625A56" d="M2828.1,337.4c49.9,0,89.7,15.9,119.5,47.8c29.8,31.9,44.7,76.9,44.7,135.1c0,58-14.9,103-44.7,135
		c-29.8,32-69.6,48-119.5,48c-49.7,0-89.4-16-119.2-48c-29.8-32-44.7-77-44.7-135c0-58.2,14.9-103.3,44.7-135.1
		C2738.7,353.4,2778.4,337.4,2828.1,337.4z M2828.1,654.5c29.7,0,53.7-11.3,72.2-33.8c18.5-22.5,27.7-56,27.7-100.4
		c0-44.6-9.2-78.2-27.7-100.7c-18.5-22.5-42.5-33.8-72.2-33.8s-53.7,11.3-72.2,33.8c-18.5,22.5-27.7,56.1-27.7,100.7
		c0,44.4,9.2,77.8,27.7,100.4C2774.3,643.3,2798.4,654.5,2828.1,654.5z"/>
	<path fill="#625A56" d="M3134.6,394.1v300.9h-62V394.1h-51.4v-48.8h51.4v-31c0-73.8,32.6-110.7,97.9-110.7c20,0,35.5,1.3,46.5,4
		v54.1c-12.3-2.2-24.8-3.3-37.6-3.3c-15.2,0-26.4,4.2-33.8,12.7c-7.4,8.5-11,23.1-11,44v30.3h66.3v48.8H3134.6z"/>
	<path fill="#625A56" d="M3385.1,695.7c-13.6,2.6-28.5,4-44.5,4c-25.5,0-44.2-4.6-56-13.7c-11.9-9.1-19.2-20.8-22.1-35.1
		c-2.9-14.3-4.3-33.7-4.3-58.3V394.1H3215v-48.8h43.2v-87h62v87h56.7v48.8h-56.7v201.7c0,24,3,39.2,9.1,45.7
		c6,6.5,14.3,9.7,24.9,9.7c10.8,0,21.1-0.9,31-2.6V695.7z"/>
</g>
<path fill="none" stroke="#CA1618" d="M2053.6,1673.2"/>
<g>
	<path fill="#CA1618" d="M3540.2,306.3l1.3-3c-0.4,0.4-1,0.8-1.8,1.1C3539,304.9,3539.6,305.5,3540.2,306.3z"/>
	<polygon fill="#CA1618" points="3542.9,300 3542.7,299.5 3542.6,300.6 	"/>
	<path fill="#CA1618" d="M3542.8,297.7c0.5-0.7,0.9-1.6,0.8-2.7C3543,295.8,3542.8,296.8,3542.8,297.7z"/>
	<path fill="#CA1618" d="M3541.2,298.8c0.7-0.1,1.3-0.1,1.5,0.6l0,0l0.1-1.8C3542.3,298.2,3541.8,298.6,3541.2,298.8z"/>
	<path fill="#CA1618" d="M3541.2,298.8c-0.6,0.1-1.3,0.5-1.7,0.5C3540.1,299.3,3540.7,299.1,3541.2,298.8z"/>
	<path fill="#CA1618" d="M3527.2,306.6c1.1-1.2,2.2-2.5,3.3-3.9c1.8-1.8-2-6-1.6-9.7c-0.2-0.7,3.4,0.7,2.9-0.6
		c-0.1-2.8-1-5.5-0.2-7.8c-0.4-1.3,4.2-1.6,3.7-2.9c-0.2-2.8-2.8-10.8-3.9-7c-1.4,5.8-1.7,9.7-2.8,15c0,4.6,0.4,9.1,0.2,13.7
		C3528.5,304.6,3527.8,305.6,3527.2,306.6z"/>
	<path fill="#CA1618" d="M3530.1,327.7c-0.2-0.7-0.7-2-0.7-2c3.4-1.4,3.3-4.2,3.2-7.1l-2.2,0.5c-0.3,1.5,0.7,2,1.9,1
		c-3.2,2.1-4.5,4.7-5.2,7.6C3528.2,327.9,3529.3,328.3,3530.1,327.7z"/>
	<path fill="#CA1618" d="M3591.8,46c0.3-0.3,0.6-0.7,0.9-1C3592.4,45.3,3592.1,45.6,3591.8,46z"/>
	<path fill="#CA1618" d="M3791.4,171.1l2.1-0.3l-0.1-0.1l-2.7,0.2l0.1,0.2c-26.8-1.5-50.3-2.6-71-3.6c-1.4-0.8-2.6-1.3-2.6-1.3
		c-11.3-0.3-22-0.9-32.4-1.7c-0.8,0.7-1.4,1.6-2.5,1.1c-0.8-0.7-1.6-1.1-2.4-1.4l-4.5-0.3l-1.6,0.3l0,0c-0.9,0.4-0.6,1-0.1,1.6
		c0,0,0.1,0.1,0.1,0.1c0,0,0,0,0,0c0,0-0.1-0.1-0.1-0.1c-0.7-0.5-1.5-0.9-2.4-1.2c-0.6,0.1-1.3,0.2-2,0.2c0.5-0.1,1.1-0.2,1.6-0.3
		c0.1,0,0.2,0,0.4,0.1l2-0.4c0,0,0,0,0,0l0,0l0.5-0.1l0.8-0.3l-10.4-0.8c-0.8,0.1-1.6,0.2-2.2,0.3c-2.5,0.5-5,0.9-6.6-1l-1.9-0.1
		l0.3,0.3c-0.3-0.1-0.5-0.3-0.7-0.4l-7.9-0.6c-5.1-0.4-10.4-0.8-15.7-1.1c-14-0.9-27.6-1.2-41.4-0.4c3.4-9.8,7-19.2,11.1-28.3
		c2.6-5.7,4.5-11.4,6.1-17l21.6-1.6c1.3,0.2,2.5,0.3,3.6,0.3c7.6,0.1,14.3-0.8,20.7-2.1l46.6-3.5c-3.5,1.6-6.5,3.6-2.8,3.7
		c8.5-0.1,14.1-0.9,21.7-1.2c6.3-1.2,12.3-2.7,18.7-3.7c1.8-0.1,3.4,0.3,5.1,0.7c-2.1-0.7-4.3-1.4-6.7-2.1l38.2-2.8
		c-0.7,0-1.3-0.1-1.9-0.1l2-0.3l-0.1-0.1l-2.5,0.2l0,0.2c-25.2-1.5-47.2-2.8-66.6-3.8c-1.3-0.8-2.4-1.3-2.4-1.3
		c-10.6-0.4-20.7-1.1-30.4-1.9c-0.8,0.7-1.4,1.6-2.3,1.1c-0.7-0.7-1.5-1.2-2.2-1.5l-4.3-0.4l-1.5,0.2l0,0c-0.8,0.4-0.6,1-0.1,1.6
		c0,0,0.1,0.1,0.1,0.1c0,0,0,0,0,0c0,0-0.1-0.1-0.1-0.1c-0.6-0.5-1.4-0.9-2.3-1.2c-0.6,0.1-1.2,0.1-1.9,0.2c0.5-0.1,1-0.1,1.5-0.2
		c0.1,0,0.2,0,0.3,0.1l1.9-0.3c0,0,0,0,0,0l0,0l0.5-0.1l0.7-0.3l-9.8-0.9c-0.7,0.1-1.5,0.1-2,0.2c-2.4,0.4-4.7,0.9-6.1-1l-1.7-0.2
		l0.3,0.4c-0.3-0.1-0.5-0.3-0.6-0.4l-7.4-0.7c-4.8-0.5-9.7-0.9-14.7-1.3c-1.9-0.2-3.8-0.4-5.7-0.5c2.7-7.7,6.3-15.3,11.8-22.6
		c5.5-8,8-24.8,9.9-33.4c-3.2-12.9-20.5-11.3-21.7-11c0.2-0.7,0.3-1.3,0.5-2l-0.6,2c-15,3.4-9.7,10.5-20.1,22.2
		c6.1-6,5.4,10.8-5.7,17.3c-10.7,5.9-12.5,16.4-14,27.2c-16.6,1-33.4,3.5-50.4,7.6c-11.1,2.1-21.9,3.7-32.6,4.7
		c2.9-10.8,6.7-21.6,13.1-32.2c5.6-9.8,8-29.8,9.9-40c-3.2-14.9-20.7-11.5-21.9-11c0.2-0.8,0.3-1.6,0.5-2.4l-0.6,2.4
		c-15.1,5.2-9.7,13.2-20.2,27.8c6.2-7.5,5.5,12.2-5.7,20.8c-12.1,8.8-12.9,23.4-14.5,37.8c-25.5,2.8-49.8,7.4-77.2,2.8
		c-13.3-1.9-37.1,2.3-49.5,3.9c-16.1,7.9-6.1,23.4-5.1,24.3c-1,0.1-1.9,0.2-2.9,0.3l3-0.2c11.3,12.6,18.6,5,39.1,10.1
		c-10.6-3.3,12.3-9.1,26.3-1.6c17,9.7,37.3,2.3,57.4-1.3c-4.6,13.2-6.9,26.5-8.8,39.9c-20.6,2.5-41,4.4-63.4,0.8
		c-14.1-1.9-39.5,2.3-52.8,3.8c-17.2,7.8-6.9,23.3-5.8,24.3l-3.1,0.3c1.1-0.1,2.1-0.2,3.1-0.3c0,0,0,0,0,0
		c11.9,12.7,19.8,5.1,41.6,10.2c-11.2-3.4,13.2-9.1,28-1.6c13.9,7.5,30,4.8,46.5,1.4c-0.6,3-1.3,5.9-2,8.9c-1.8,8.2-0.1,16.2,0,23.7
		c-0.7,5.2-3.9,10.2-5,14.3c-1.7,6.5-2,12.5-1.9,18.3c1-6.2,1.2-10.9,2.5-17.7c1-4.5,3.9,4.4,4.1,7.6c0.5,1.5-4.2,2.4-3.7,3.8
		c-0.8,2.8,0.2,5.8,0.4,9c0.5,1.5-3.2,0.3-3,1c-0.3,4.3,3.5,8.7,1.8,11c-1.1,1.8-2.2,3.4-3.3,5c-0.5,1-1,2.1-1.2,3.3l0.3,2.5
		c0.6,5.9,0.8,12.7,0.7,18.8l0.4,0c0.3-1.6,0.7-3.1,1.4-4.5l-1.1,4.6c-0.1,0-0.2,0-0.3,0l-0.3,2.1c0,0,0.1,0,0.1-0.1l-12.2,51.9
		c0.2-0.5,0.3-1,0.5-1.5l0,1.7l0.1,0l0.3-2.1l-0.2,0c6.1-20.4,11.2-37.7,15.7-52.8c1-0.9,1.7-1.6,1.7-1.6c2.3-8.5,4.8-16.4,7.4-24
		c-0.5-0.8-1.3-1.5-0.6-2.1c0.8-0.4,1.4-0.9,1.8-1.5l1.2-3.3l0.1-1.3l0,0c-0.2-0.8-0.9-0.7-1.5-0.5c0,0-0.1,0-0.1,0.1c0,0,0,0,0,0
		c0,0,0.1,0,0.1-0.1c0.6-0.4,1.2-0.9,1.6-1.5c0-0.5,0.1-1,0.2-1.5c0,0.4,0,0.8,0,1.3c0,0.1-0.1,0.2-0.1,0.3l0,1.6c0,0,0,0,0,0l0,0
		l0,0.4l0.2,0.7l2.7-7.6c0.1-0.6,0.1-1.2,0.1-1.7c0-2,0-4,2.2-4.7l0.5-1.4l-0.4,0.2l0.5-0.4l2.1-5.8c1.4-3.8,2.7-7.6,4.1-11.5
		c5.8-15.8,9.6-31.4,13.4-47.5c0.2,0,0.5,0,0.7,0c6.7-0.1,13.6-1.9,21.5-3.1c20.7-1.2,41-6.3,60.3-13c2.2-0.8,4.3-1.5,6.4-2.3
		c0,0,0,0.1,0,0.1c-1.8,6.8-0.1,13.7,0,20c-0.7,4.4-3.9,8.3-5,11.8c-1.7,5.4-2,10.5-1.9,15.5c1-5.2,1.2-9.2,2.5-14.9
		c1-3.8,3.9,4.1,4.1,6.9c0.5,1.3-4.1,1.6-3.6,3c-0.8,2.3,0.2,4.9,0.4,7.7c0.5,1.3-3.1,0-2.9,0.6c-0.3,3.6,3.5,7.8,1.7,9.6
		c-1.1,1.5-2.2,2.7-3.2,4c-0.5,0.8-1,1.7-1.2,2.7l0.3,2.1c0.6,5.2,0.7,10.9,0.6,16.2l0.3,0c0.3-1.4,0.7-2.7,1.5-4l-1.1,4
		c-0.1,0-0.2,0-0.4-0.1l-0.3,1.7c0.1,0,0.1,0,0.2-0.1l-12.3,43.4c0.2-0.4,0.3-0.9,0.5-1.3l0,1.4l0.1,0l0.3-1.7l-0.2,0
		c6-16.9,11.2-31.3,15.6-43.8c1-0.7,1.7-1.2,1.7-1.2c2.3-7.1,4.8-13.6,7.4-19.9c-0.5-0.7-1.2-1.4-0.6-1.9c0.8-0.3,1.4-0.7,1.8-1.1
		l1.2-2.8l0.1-1.1l0,0c-0.2-0.7-0.8-0.7-1.5-0.6c0,0-0.1,0-0.1,0.1c0,0,0,0,0,0c0,0,0.1,0,0.1,0c0.6-0.3,1.1-0.7,1.5-1.2
		c0-0.4,0.1-0.9,0.2-1.3c0,0.3,0,0.7-0.1,1.1c0,0.1-0.1,0.1-0.1,0.2l0,1.4c0,0,0,0,0,0l0,0l0,0.4l0.2,0.6l2.7-6.3
		c0.1-0.5,0.1-1,0.2-1.4c0-1.7,0.1-3.4,2.2-3.8l0.5-1.1l-0.4,0.1l0.5-0.3l2.1-4.8c1.4-3.1,2.7-6.3,4.1-9.5
		c5.8-13.1,9.6-26.1,13.4-39.5c4.7-0.7,9.7-1.2,15-1.4c2.6-0.2,5.1-0.6,7.6-1.1l110.3-9.3c-2.5,1.3-3.7,2.6-0.6,2.6
		c9-0.2,15-1,23.1-1.3c6.7-1.2,13.1-2.8,19.9-3.8c1.9-0.1,3.7,0.3,5.4,0.6c-1.8-0.6-3.7-1.1-5.8-1.7l39.3-3.3
		C3792.8,171.2,3792.1,171.1,3791.4,171.1z M3477.8,147.4c1.1-3,2.1-6,3-9c18.3-1.3,36-5.6,52.8-10.7c11.2-3.5,21.2-6.4,31.8-8.2
		c-0.3,1.2-0.6,2.4-1,3.7c-6.1,13.5-8.6,27.5-10.8,41.5c-8.7,2-17.3,4.3-25.9,6.4c-18.4,4.3-36.3,6.6-54.2,7.6
		c-2.1,0.1-4.1,0.2-6.2,0.4C3470.5,168.2,3473.9,157.7,3477.8,147.4z M3635.3,163.5c-2.5,0.7-5.7,0-8.3-1.9
		C3630.2,160,3633,161.6,3635.3,163.5z M3721.4,109c-0.8,0.4-0.4-3.4-2.1-2.7c-3.8,0.9-7.1,2.4-10.6,2.2c-0.8,0.4-1.9-0.6-2.9-1.5
		l24.7-1.8C3728,106.3,3724.9,108.6,3721.4,109z M3623.9,93.6c-2.4,0.6-5.4-0.1-7.8-2C3619.2,90,3621.7,91.6,3623.9,93.6z
		 M3440.2,268.2c-0.2-2,1.1-4.3,3.4-5.8C3444.6,265.2,3442.5,266.9,3440.2,268.2z M3561.7,231.9c-0.2-1.8,1.1-3.6,3.4-4.6
		C3566.1,229.8,3564,231.1,3561.7,231.9z M3725.9,177.8c-0.6,0.3-1.4-0.1-2.2-0.7l10.9-0.9C3731.7,177,3728.9,178,3725.9,177.8z
		 M3739.4,178.2c-0.6,0.3-0.6-1.5-1.1-2.3l9.3-0.8C3745.2,176.2,3742.5,177.9,3739.4,178.2z"/>
	<path fill="#CA1618" d="M3753.5,163.8l-4.9-0.4c0.8,0.3,1.6,0.8,2.4,1.5C3752,165.3,3752.6,164.5,3753.5,163.8z"/>
	<polygon fill="#CA1618" points="3743.2,162.8 3742.4,163.2 3744,162.9 	"/>
	<path fill="#CA1618" d="M3735.5,163.5c1.5,0.3,2.9,0.2,4.4,0.1C3738.6,163.2,3737.2,163.1,3735.5,163.5z"/>
	<path fill="#CA1618" d="M3742.4,163.2L3742.4,163.2l-2.6,0.4c0.9,0.3,1.7,0.7,2.4,1.2C3741.7,164.2,3741.5,163.6,3742.4,163.2z"/>
	<path fill="#CA1618" d="M3743.7,166.2c-0.4-0.5-0.9-1-1.5-1.5C3742.7,165.3,3743.5,165.9,3743.7,166.2z"/>
	<path fill="#CA1618" d="M3789.4,168c-0.9,0.4-2.6,1.2-2.6,1.2c-3.7-3-7.7-2.1-11.8-1.2l1.7,2c2.3-0.1,2.6-1.2,0.6-2.1
		c4.5,2.6,8.9,3.2,13.4,3C3790.5,169.8,3790.7,168.6,3789.4,168z"/>
	<path fill="#CA1618" d="M3352.3,222.1c0.6,0.2,1.2,0.3,2,0.5C3353.6,222.4,3352.9,222.3,3352.3,222.1z"/>
	<path fill="#CA1618" d="M3734.7,94.7l-4.6-0.5c0.8,0.3,1.5,0.8,2.2,1.5C3733.3,96.2,3733.9,95.4,3734.7,94.7z"/>
	<polygon fill="#CA1618" points="3725.1,93.7 3724.4,94 3725.9,93.8 	"/>
	<path fill="#CA1618" d="M3721.9,94.4c-1.1-0.4-2.5-0.4-4.1-0.1C3719.2,94.6,3720.6,94.5,3721.9,94.4z"/>
	<path fill="#CA1618" d="M3724.3,94L3724.3,94l-2.4,0.4c0.8,0.3,1.6,0.7,2.2,1.2C3723.7,95,3723.5,94.4,3724.3,94z"/>
	<path fill="#CA1618" d="M3725.6,97c-0.4-0.5-0.9-1-1.4-1.5C3724.6,96.2,3725.3,96.7,3725.6,97z"/>
	<path fill="#CA1618" d="M3768.4,98.9c-0.8,0.4-2.5,1.1-2.5,1.1c-3.4-3-7.2-2.1-11-1.3l1.6,2c2.2-0.1,2.5-1.1,0.6-2.1
		c4.2,2.6,8.3,3.2,12.6,3.1C3769.5,100.7,3769.6,99.5,3768.4,98.9z"/>
	<path fill="#CA1618" d="M3357.8,146c0.5,0.2,1.2,0.3,1.9,0.5C3359.1,146.3,3358.5,146.1,3357.8,146z"/>
	<path fill="#CA1618" d="M3418,354.9c-0.7,0.7,0,1.3,0.6,2.1l1.3-3.6C3419.4,354,3418.8,354.5,3418,354.9z"/>
	<polygon fill="#CA1618" points="3421.3,349.6 3421.1,348.9 3421.1,350.2 	"/>
	<path fill="#CA1618" d="M3421.2,346.8c0.5-0.8,0.9-1.9,0.8-3.3C3421.4,344.6,3421.3,345.7,3421.2,346.8z"/>
	<path fill="#CA1618" d="M3419.6,348.4c0.7-0.2,1.3-0.2,1.5,0.5l0,0l0.1-2.1C3420.8,347.5,3420.2,348,3419.6,348.4z"/>
	<path fill="#CA1618" d="M3419.6,348.4c-0.6,0.2-1.3,0.7-1.7,0.8C3418.5,348.9,3419.1,348.7,3419.6,348.4z"/>
	<path fill="#CA1618" d="M3405.4,358.9c1.1-1.6,2.2-3.2,3.3-5c1.8-2.3-2-6.8-1.7-11.1c-0.2-0.7,3.4,0.5,3-1
		c-0.2-3.3-1.1-6.3-0.3-9.1c-0.5-1.5,4.2-2.3,3.8-3.8c-0.2-3.3-2.9-12.3-4-7.8c-1.4,6.9-1.7,11.6-2.8,17.8c0,5.3,0.4,10.6,0.2,16
		C3406.7,356.5,3406.1,357.7,3405.4,358.9z"/>
	<path fill="#CA1618" d="M3408.4,383.2c-0.2-0.8-0.7-2.3-0.7-2.3c3.5-2,3.3-5.3,3.2-8.6l-2.2,0.8c-0.3,1.8,0.7,2.3,1.9,1
		c-3.3,2.8-4.6,6-5.2,9.4C3406.5,383.6,3407.6,384,3408.4,383.2z"/>
	<path fill="#CA1618" d="M3470.8,46.3c-0.3,0.4-0.6,0.8-0.9,1.2C3470.2,47.1,3470.5,46.7,3470.8,46.3z"/>
</g>
</svg>
