<?xml version="1.0" encoding="UTF-8" ?>
<!DOCTYPE svg PUBLIC "-//W3C//DTD SVG 1.1//EN" "http://www.w3.org/Graphics/SVG/1.1/DTD/svg11.dtd">
<svg width="400pt" height="400pt" viewBox="0 0 400 400" version="1.1" xmlns="http://www.w3.org/2000/svg">
<path fill="#ffffff" d=" M 0.00 0.00 L 400.00 0.00 L 400.00 159.96 C 398.21 161.08 396.34 162.04 394.48 163.01 C 394.16 162.04 393.53 160.09 393.22 159.12 C 389.51 160.46 385.86 162.50 381.83 162.50 C 380.33 161.41 379.09 160.02 377.77 158.75 C 373.71 160.47 369.65 162.60 366.99 166.24 C 373.72 166.67 380.40 165.45 387.07 164.82 C 391.52 164.39 395.82 163.09 400.00 161.56 L 400.00 400.00 L 0.00 400.00 L 0.00 0.00 Z" />
<path fill="#cd2127" d=" M 159.21 26.34 C 161.64 20.02 168.76 17.76 174.90 17.08 C 182.62 16.66 191.10 17.66 197.30 22.68 C 199.48 24.78 202.25 27.47 201.52 30.80 C 200.10 40.44 199.06 50.30 195.45 59.43 C 193.79 63.76 190.49 67.12 188.12 71.04 C 184.83 76.19 182.41 81.83 180.35 87.56 C 188.64 86.64 196.94 85.70 205.09 83.92 C 216.82 81.43 228.72 79.78 240.67 78.79 C 241.45 72.48 242.31 65.64 246.72 60.71 C 250.63 55.89 257.64 55.37 261.43 50.42 C 263.63 47.70 265.65 43.84 264.35 40.35 C 263.21 37.64 260.63 40.39 258.83 41.00 C 263.58 37.84 266.31 32.74 268.80 27.79 C 271.33 22.55 277.72 21.35 282.97 21.00 C 290.24 21.00 298.09 22.36 303.79 27.21 C 305.50 28.99 307.67 31.27 307.06 33.96 C 305.75 41.63 304.51 49.43 301.57 56.68 C 299.93 60.99 296.41 64.11 293.82 67.82 C 291.12 71.53 289.11 75.67 287.14 79.80 C 294.08 80.62 301.04 81.25 307.97 82.17 C 309.19 82.97 310.45 84.12 312.05 83.60 C 317.01 82.70 321.99 83.78 326.93 84.31 C 328.66 84.37 330.09 85.34 331.54 86.16 C 331.91 85.86 332.65 85.25 333.03 84.94 C 341.36 85.68 349.70 86.28 358.06 86.59 C 361.80 86.59 364.17 89.92 366.72 92.17 C 359.95 94.33 352.97 95.83 346.36 98.47 C 344.27 99.19 342.16 100.34 339.88 99.96 C 336.82 99.37 334.02 97.92 331.12 96.84 C 327.76 98.84 324.64 101.26 321.02 102.80 C 320.62 101.58 320.22 100.37 319.82 99.16 C 316.42 100.72 312.94 102.13 309.21 102.62 C 307.99 101.39 306.78 100.17 305.56 98.95 C 302.08 100.61 298.61 102.54 296.28 105.71 C 303.38 105.45 310.67 104.98 317.51 103.01 C 317.53 103.19 317.59 103.55 317.61 103.73 C 312.34 105.68 306.73 106.56 301.14 106.95 C 293.66 107.66 286.33 103.70 278.89 105.92 C 274.84 117.92 267.97 128.71 263.67 140.63 C 282.33 139.76 300.92 142.17 319.43 144.13 C 322.42 147.13 326.52 144.35 330.12 145.13 C 334.81 145.73 339.73 145.55 344.13 147.52 C 346.07 147.27 347.99 146.63 349.98 146.96 C 358.25 147.77 366.57 147.83 374.85 148.45 C 377.58 149.67 379.68 151.91 381.80 153.98 C 373.75 156.57 365.48 158.45 357.66 161.71 C 352.97 164.09 348.49 160.04 343.90 159.41 C 340.17 161.07 337.20 164.08 333.31 165.44 C 332.92 164.19 332.54 162.94 332.15 161.69 C 328.51 163.26 324.84 164.86 320.88 165.46 C 319.55 164.17 318.22 162.87 316.88 161.59 C 313.22 163.38 309.40 165.36 307.22 168.97 C 314.83 168.79 322.29 167.03 329.87 166.48 C 323.14 168.85 316.01 170.09 308.88 170.10 C 302.58 170.12 296.29 167.25 290.03 169.05 C 282.06 171.65 274.42 175.85 265.89 176.31 C 261.19 176.54 256.50 176.92 251.85 177.66 C 249.23 187.21 245.14 196.25 241.95 205.59 C 241.36 204.88 240.78 204.18 240.20 203.48 C 238.62 204.37 237.32 205.61 236.41 207.18 C 237.98 206.96 239.54 206.72 241.11 206.43 C 238.25 210.92 237.46 216.80 233.27 220.34 C 232.45 225.04 230.95 230.13 227.37 233.48 C 227.44 234.91 227.44 236.35 226.76 237.66 C 224.69 242.62 222.84 247.66 221.18 252.77 C 220.18 253.28 219.17 253.79 218.17 254.31 C 217.98 253.79 217.61 252.73 217.42 252.21 C 220.04 250.99 220.78 248.44 220.38 245.76 C 219.66 245.87 218.22 246.10 217.50 246.21 C 218.03 246.52 219.08 247.14 219.61 247.45 C 217.44 248.81 215.91 250.83 214.93 253.16 C 215.75 253.50 217.40 254.18 218.22 254.52 C 217.37 254.73 215.68 255.16 214.83 255.37 C 214.06 248.84 213.49 242.26 211.83 235.88 C 213.34 233.75 215.51 232.08 216.75 229.80 C 215.77 227.06 214.24 224.56 213.36 221.78 C 214.24 221.81 216.01 221.85 216.90 221.88 C 216.25 219.27 215.80 216.61 215.56 213.94 C 217.03 213.40 218.50 212.86 219.98 212.33 C 218.91 209.35 217.48 206.47 215.15 204.28 C 214.02 209.19 213.97 214.26 213.12 219.21 C 212.55 214.86 212.40 210.36 213.48 206.07 C 214.43 202.09 217.72 199.09 218.48 195.05 C 218.49 192.87 217.99 190.73 217.67 188.59 C 202.30 193.92 186.36 198.05 170.05 198.88 C 161.54 198.89 153.38 201.85 144.86 201.85 C 141.88 213.66 138.49 225.39 133.93 236.70 C 133.01 236.45 132.50 235.53 131.73 235.06 C 130.30 236.34 129.18 237.91 128.35 239.64 C 129.81 239.37 132.02 236.84 133.06 238.91 C 131.32 243.80 129.10 248.53 127.31 253.42 C 126.57 253.86 125.84 254.30 125.11 254.75 C 125.52 260.17 122.55 264.85 120.89 269.80 C 120.42 270.04 119.48 270.52 119.01 270.76 C 120.31 273.44 118.51 276.10 117.78 278.65 C 115.90 283.67 114.83 288.96 112.95 293.97 C 111.11 295.83 108.57 296.79 106.32 298.05 C 105.15 291.38 104.63 284.60 102.94 278.02 C 101.29 273.82 105.64 270.94 107.78 267.95 C 106.22 264.76 104.45 261.66 103.45 258.23 C 104.45 258.30 106.45 258.43 107.45 258.50 C 106.86 255.41 105.24 252.28 106.03 249.09 C 107.34 248.10 108.92 247.60 110.38 246.89 C 109.25 243.46 107.65 240.13 104.99 237.62 C 103.64 243.48 103.96 249.53 103.07 255.45 C 102.24 249.52 101.94 243.28 103.81 237.51 C 105.30 233.06 109.12 229.03 108.08 224.03 C 107.13 218.86 105.99 213.71 105.64 208.46 C 95.79 210.08 84.86 209.46 76.57 203.32 C 70.29 198.46 62.02 196.41 54.18 197.54 C 51.91 197.88 49.57 198.54 47.90 200.22 C 48.03 202.71 51.11 202.96 52.75 204.17 C 47.36 202.29 41.79 200.76 36.07 200.44 C 30.86 199.98 25.22 200.35 20.58 197.53 C 11.39 191.74 7.23 179.76 9.59 169.36 C 11.06 164.71 14.63 159.66 19.88 159.25 C 32.51 157.57 45.17 155.23 57.97 155.80 C 63.04 156.02 67.88 157.65 72.86 158.47 C 86.16 160.76 99.77 160.37 113.15 159.00 C 114.09 151.70 115.32 144.42 117.30 137.32 C 105.19 140.39 90.94 142.68 80.11 134.81 C 72.48 128.96 60.69 126.28 52.35 132.08 C 53.91 133.52 55.68 134.72 57.52 135.79 C 50.42 132.57 42.56 132.00 34.88 131.63 C 26.72 131.38 20.27 124.57 17.81 117.22 C 15.61 110.81 15.01 103.04 19.28 97.33 C 20.92 95.12 23.19 93.05 26.08 92.89 C 37.33 91.27 48.59 89.16 60.00 89.25 C 66.32 89.22 72.31 91.41 78.53 92.21 C 95.54 94.71 112.72 92.44 129.66 90.47 C 130.37 81.71 130.73 71.86 137.06 65.04 C 141.21 59.97 148.48 58.68 152.02 52.98 C 154.59 49.16 157.25 43.08 153.35 39.28 C 151.83 40.28 150.33 41.31 148.84 42.35 C 153.69 38.04 156.81 32.28 159.21 26.34 Z" />
<path fill="#ffffff" d=" M 286.14 82.63 C 286.33 81.78 286.79 81.12 287.52 80.64 C 289.11 81.53 290.52 82.70 291.85 83.94 C 289.89 83.80 287.88 83.63 286.14 82.63 Z" />
<path fill="#cd2127" d=" M 374.67 83.54 C 377.56 83.16 380.58 83.23 383.25 81.87 C 380.99 82.88 380.43 84.53 381.95 86.64 C 381.29 85.71 380.62 84.79 379.95 83.87 C 378.18 83.84 376.41 83.82 374.67 83.54 Z" />
<path fill="#cd2127" d=" M 386.59 83.05 C 387.71 82.41 389.29 82.76 390.28 83.55 C 391.13 86.20 386.05 85.15 386.59 83.05 Z" />
<path fill="#ffffff" d=" M 351.13 89.45 C 354.42 88.19 357.95 88.23 360.87 90.37 C 361.54 90.18 362.88 89.81 363.55 89.62 C 363.62 90.40 363.75 91.95 363.82 92.73 C 360.41 92.45 357.05 91.71 354.02 90.09 C 353.73 90.55 353.17 91.46 352.89 91.92 C 352.30 91.09 351.72 90.27 351.13 89.45 Z" />
<path fill="#cd2127" d=" M 387.48 95.64 C 390.40 95.14 393.07 97.16 395.77 98.00 C 388.13 96.61 381.20 101.27 373.79 102.27 C 366.85 103.00 359.91 103.98 352.92 104.02 C 354.77 99.99 359.16 98.33 362.95 96.68 C 364.05 97.92 365.15 99.17 366.23 100.44 C 370.13 100.13 373.73 98.56 377.33 97.15 C 377.59 98.06 378.13 99.89 378.40 100.81 C 381.65 99.48 384.32 97.13 387.48 95.64 Z" />
<path fill="#ffffff" d=" M 167.89 130.58 C 189.26 129.78 209.34 121.91 229.70 116.21 C 226.14 125.73 224.45 135.80 223.02 145.83 C 219.51 146.60 216.00 147.40 212.52 148.30 C 194.78 153.28 176.28 154.94 157.91 155.29 C 160.85 146.90 164.23 138.68 167.89 130.58 Z" />
<path fill="#ffffff" d=" M 294.52 143.02 C 297.53 142.46 300.10 143.89 302.01 146.09 C 299.13 146.23 296.31 145.40 294.52 143.02 Z" />
<path fill="#ffffff" d=" M 365.33 151.22 C 368.79 150.00 372.82 149.60 375.67 152.42 C 376.33 152.08 377.66 151.39 378.33 151.05 C 378.49 151.88 378.81 153.54 378.98 154.37 C 375.31 154.39 371.65 153.74 368.46 151.84 C 368.11 152.34 367.39 153.33 367.04 153.83 C 366.46 152.96 365.89 152.09 365.33 151.22 Z" />
<path fill="#cd2127" d=" M 366.99 166.24 C 369.65 162.60 373.71 160.47 377.77 158.75 C 379.09 160.02 380.33 161.41 381.83 162.50 C 385.86 162.50 389.51 160.46 393.22 159.12 C 393.53 160.09 394.16 162.04 394.48 163.01 C 396.34 162.04 398.21 161.08 400.00 159.96 L 400.00 161.56 C 395.82 163.09 391.52 164.39 387.07 164.82 C 380.40 165.45 373.72 166.67 366.99 166.24 Z" />
<path fill="#cd2127" d=" M 206.39 242.60 C 209.18 244.74 210.30 248.15 211.46 251.33 C 210.03 251.93 208.55 252.43 207.19 253.20 C 206.72 255.93 207.79 258.62 208.25 261.29 C 207.33 261.19 205.50 260.99 204.58 260.89 C 205.60 263.60 207.11 266.11 207.98 268.89 C 206.97 270.63 205.44 272.00 204.16 273.54 C 206.66 268.22 203.68 262.50 204.15 256.98 C 204.67 252.16 205.10 247.29 206.39 242.60 Z" />
<path fill="#666667" d=" M 121.30 264.32 C 121.80 264.82 121.80 264.82 121.30 264.32 Z" />
<path fill="#cd2127" d=" M 218.75 273.79 C 216.03 274.35 217.76 270.12 219.68 271.45 C 220.01 272.44 219.70 273.22 218.75 273.79 Z" />
<path fill="#cd2127" d=" M 96.52 283.69 C 99.82 285.99 101.17 289.91 102.21 293.61 C 100.68 294.31 99.09 294.92 97.64 295.79 C 97.21 299.00 98.47 302.09 99.15 305.18 C 97.84 305.19 96.54 305.18 95.24 305.17 C 95.65 306.41 96.07 307.66 96.50 308.90 C 96.23 308.93 95.69 308.99 95.43 309.02 C 93.69 300.65 94.90 291.98 96.52 283.69 Z" />
<path fill="#cd2127" d=" M 208.28 284.80 C 209.07 284.78 210.64 284.75 211.42 284.73 C 211.64 287.47 211.01 290.09 208.48 291.56 C 208.65 291.93 209.00 292.68 209.17 293.05 C 207.72 293.18 206.27 293.36 204.83 293.54 C 205.82 291.03 207.04 288.61 208.89 286.62 C 208.74 286.17 208.44 285.26 208.28 284.80 Z" />
<path fill="#ffffff" d=" M 108.87 286.81 C 109.59 286.61 111.03 286.23 111.75 286.04 C 112.46 289.14 111.92 292.22 108.88 293.80 C 109.09 294.38 109.50 295.53 109.70 296.10 C 108.81 295.95 107.04 295.65 106.16 295.51 C 107.12 292.75 108.53 290.15 110.75 288.21 C 110.12 287.74 109.49 287.27 108.87 286.81 Z" />
<path fill="#666667" d=" M 350.45 296.54 C 353.77 293.40 358.70 294.22 362.86 294.36 C 362.96 296.35 363.07 298.35 363.17 300.35 C 360.28 300.45 356.20 299.26 354.49 302.39 C 353.71 304.71 353.88 307.22 353.72 309.65 C 356.18 309.66 358.65 309.67 361.11 309.67 C 361.10 311.37 361.10 313.07 361.10 314.78 C 358.67 314.77 356.25 314.77 353.84 314.78 C 353.84 325.81 353.82 336.84 353.85 347.87 C 351.60 347.87 349.36 347.87 347.12 347.88 C 347.14 336.85 347.10 325.82 347.14 314.79 C 345.25 314.78 343.36 314.77 341.47 314.77 C 341.47 313.07 341.47 311.37 341.47 309.67 C 343.33 309.66 345.19 309.65 347.05 309.64 C 347.16 305.17 346.84 299.86 350.45 296.54 Z" />
<path fill="#666667" d=" M 367.57 300.19 C 369.80 300.17 372.04 300.18 374.29 300.17 C 374.28 303.33 374.28 306.49 374.27 309.65 C 376.30 309.66 378.32 309.67 380.36 309.69 C 380.35 311.37 380.36 313.06 380.37 314.75 C 378.34 314.76 376.32 314.77 374.30 314.79 C 374.45 323.38 373.89 332.01 374.57 340.56 C 375.14 343.60 378.72 342.81 380.96 342.99 C 380.95 344.72 380.94 346.46 380.93 348.21 C 377.39 348.29 373.32 349.08 370.27 346.80 C 367.89 344.95 367.68 341.71 367.61 338.95 C 367.51 330.88 367.70 322.82 367.53 314.75 C 365.98 314.76 364.43 314.76 362.89 314.77 C 362.88 313.07 362.87 311.37 362.87 309.68 C 364.45 309.67 366.01 309.65 367.60 309.64 C 367.60 306.49 367.59 303.34 367.57 300.19 Z" />
<path fill="#cd2127" d=" M 111.64 311.44 C 112.18 310.15 112.46 307.98 113.86 307.47 C 114.61 308.75 113.71 310.41 112.97 311.51 C 112.64 311.49 111.97 311.46 111.64 311.44 Z" />
<path fill="#666667" d=" M 31.44 309.62 C 38.00 307.16 46.28 310.20 49.30 316.62 C 52.22 322.74 52.41 329.96 50.68 336.45 C 48.96 342.98 43.16 348.85 36.10 348.74 C 32.05 349.14 28.30 347.37 25.01 345.19 C 25.14 351.03 25.06 356.88 25.08 362.72 C 22.78 362.73 20.49 362.74 18.19 362.75 C 18.21 345.06 18.24 327.37 18.18 309.67 C 20.48 309.67 22.78 309.67 25.08 309.67 C 25.07 310.69 25.05 312.73 25.04 313.74 C 27.08 312.24 29.04 310.53 31.44 309.62 Z" />
<path fill="#666667" d=" M 66.07 314.50 C 69.43 310.72 74.01 307.94 79.27 308.78 C 79.29 311.01 79.31 313.24 79.34 315.48 C 77.06 315.41 74.71 315.02 72.48 315.65 C 69.86 316.40 68.03 318.52 66.13 320.33 C 66.12 329.51 66.12 338.68 66.13 347.86 C 63.87 347.86 61.62 347.87 59.37 347.89 C 59.37 335.14 59.38 322.40 59.37 309.66 C 61.63 309.66 63.89 309.67 66.15 309.67 C 66.12 311.28 66.10 312.89 66.07 314.50 Z" />
<path fill="#666667" d=" M 82.58 320.43 C 83.24 313.88 89.00 309.20 95.43 309.02 C 95.69 308.99 96.23 308.93 96.50 308.90 C 101.24 308.53 106.32 309.01 110.46 311.55 C 114.15 314.02 114.67 318.86 114.77 322.93 C 114.82 331.25 114.75 339.56 114.79 347.88 C 112.48 347.87 110.17 347.85 107.86 347.83 C 107.92 346.62 107.97 345.41 108.04 344.20 C 102.12 348.80 93.18 350.68 86.57 346.50 C 80.43 342.76 80.26 333.08 85.82 328.76 C 92.06 323.91 100.45 324.25 107.94 324.16 C 107.82 321.92 108.05 319.59 107.34 317.43 C 105.97 314.52 102.46 314.24 99.69 313.76 C 98.21 315.97 96.59 318.08 95.03 320.24 C 95.55 318.10 95.99 315.95 96.37 313.78 C 92.80 314.50 89.69 316.70 89.07 320.49 C 86.91 320.48 84.75 320.46 82.58 320.43 Z" />
<path fill="#666667" d=" M 123.84 319.79 C 125.93 313.02 132.92 308.04 140.06 308.84 C 143.45 309.01 146.43 310.75 149.25 312.48 C 149.20 311.78 149.09 310.39 149.03 309.69 C 151.32 309.67 153.60 309.67 155.89 309.67 C 155.79 321.81 155.94 333.95 155.83 346.09 C 155.68 351.47 154.30 357.47 149.69 360.79 C 145.49 364.04 139.86 362.72 134.96 362.93 C 128.86 363.15 123.66 357.89 123.43 351.88 C 125.69 351.87 127.96 351.87 130.23 351.89 C 131.03 359.13 140.61 359.81 145.56 356.49 C 149.54 353.46 148.84 347.87 149.30 343.47 C 146.41 346.04 143.12 348.75 139.02 348.73 C 133.82 349.21 128.39 346.80 125.73 342.22 C 121.74 335.56 121.63 327.07 123.84 319.79 Z" />
<path fill="#666667" d=" M 172.44 314.18 C 175.90 311.09 180.14 308.01 185.08 308.86 C 189.08 309.09 192.28 311.81 194.12 315.22 C 196.42 312.98 198.78 310.60 201.88 309.51 C 206.39 307.85 212.11 308.97 215.07 312.94 C 217.39 316.10 217.46 320.22 217.51 323.99 C 217.48 331.95 217.50 339.92 217.49 347.89 C 215.26 347.87 213.03 347.87 210.80 347.87 C 210.75 339.23 210.87 330.58 210.77 321.94 C 210.74 319.09 210.15 315.27 206.89 314.43 C 202.07 313.09 198.03 316.72 195.05 320.01 C 195.14 329.28 195.07 338.56 195.10 347.83 C 192.81 347.85 190.53 347.87 188.25 347.88 C 188.19 338.91 188.40 329.92 188.18 320.95 C 188.17 318.22 187.04 314.79 183.94 314.32 C 179.13 313.26 175.31 316.97 172.41 320.25 C 172.51 329.46 172.44 338.67 172.45 347.89 C 170.22 347.87 167.98 347.87 165.75 347.88 C 165.74 335.14 165.76 322.40 165.75 309.66 C 167.99 309.66 170.23 309.66 172.47 309.67 C 172.46 311.17 172.45 312.67 172.44 314.18 Z" />
<path fill="#666667" d=" M 230.75 311.75 C 237.06 307.83 245.50 307.93 252.22 310.74 C 256.69 312.53 257.99 317.64 258.06 322.00 C 258.21 330.62 258.05 339.24 258.11 347.86 C 255.84 347.86 253.58 347.87 251.32 347.89 C 251.33 346.94 251.36 345.05 251.38 344.10 C 244.88 349.44 233.69 351.20 227.56 344.45 C 223.35 339.67 224.71 331.39 230.09 328.05 C 236.35 323.88 244.24 324.29 251.44 324.13 C 251.09 320.91 251.72 316.49 248.06 314.95 C 244.27 313.43 239.76 313.48 236.00 315.08 C 233.79 316.01 233.12 318.44 232.41 320.49 C 230.26 320.48 228.10 320.46 225.95 320.43 C 226.78 317.21 227.61 313.52 230.75 311.75 Z" />
<path fill="#666667" d=" M 270.03 312.10 C 275.74 307.72 283.94 308.03 290.35 310.61 C 294.05 311.95 295.61 315.72 296.32 319.29 C 294.09 319.30 291.85 319.31 289.62 319.30 C 288.05 313.17 280.05 312.75 275.35 315.27 C 272.71 316.38 272.04 320.81 274.78 322.16 C 281.13 325.26 288.88 325.02 294.61 329.47 C 298.91 333.73 297.81 341.60 293.20 345.24 C 289.29 348.58 283.86 349.04 278.94 348.65 C 274.96 348.38 270.70 347.16 268.10 343.94 C 266.28 341.85 265.82 339.03 265.20 336.43 C 267.41 336.39 269.62 336.39 271.83 336.39 C 272.46 338.65 273.11 341.36 275.58 342.29 C 279.44 343.90 284.19 344.08 287.90 341.97 C 290.59 340.47 291.77 336.03 289.02 334.03 C 282.57 330.59 274.48 330.96 268.59 326.32 C 265.08 322.36 265.63 315.22 270.03 312.10 Z" />
<path fill="#666667" d=" M 314.41 309.66 C 321.03 307.61 328.92 309.10 333.78 314.22 C 337.28 318.25 338.42 323.79 338.36 329.00 C 338.31 334.17 337.05 339.65 333.41 343.52 C 328.49 349.06 320.01 349.91 313.32 347.59 C 308.72 345.86 305.11 341.88 303.92 337.11 C 301.90 330.59 302.29 323.34 305.10 317.11 C 306.82 313.33 310.60 310.95 314.41 309.66 Z" />
<path fill="#ffffff" d=" M 25.05 320.18 C 27.79 316.94 31.38 313.49 36.01 314.04 C 40.62 313.94 43.60 318.40 44.27 322.51 C 45.03 327.66 45.20 333.22 43.08 338.09 C 41.62 341.56 37.89 343.96 34.10 343.46 C 30.60 343.27 27.71 341.17 25.06 339.09 C 25.09 332.79 25.10 326.48 25.05 320.18 Z" />
<path fill="#ffffff" d=" M 135.64 314.59 C 140.29 313.00 145.66 314.71 148.86 318.37 C 149.57 324.56 148.91 330.85 149.18 337.08 C 146.87 339.59 144.45 342.41 140.97 343.20 C 137.21 344.33 132.92 342.32 131.27 338.79 C 129.08 334.23 129.13 328.92 129.75 324.00 C 130.21 320.24 132.03 316.26 135.64 314.59 Z" />
<path fill="#ffffff" d=" M 317.26 314.36 C 320.91 313.20 325.22 314.20 327.82 317.06 C 330.85 320.21 331.37 324.83 331.39 328.99 C 331.32 333.08 330.64 337.58 327.59 340.59 C 323.71 344.58 316.50 344.43 312.85 340.19 C 309.20 336.14 309.12 330.20 309.61 325.07 C 309.99 320.49 312.59 315.68 317.26 314.36 Z" />
<path fill="#ffffff" d=" M 91.63 331.64 C 96.52 328.73 102.46 329.35 107.91 329.20 C 107.90 332.22 107.90 335.23 107.95 338.25 C 104.05 342.47 97.75 344.76 92.20 342.71 C 87.60 341.17 87.69 333.87 91.63 331.64 Z" />
<path fill="#ffffff" d=" M 235.40 331.36 C 240.28 328.77 246.00 329.34 251.33 329.21 C 251.28 332.14 251.60 335.11 251.11 338.02 C 247.62 342.72 240.75 344.78 235.28 342.62 C 230.69 340.81 231.16 333.32 235.40 331.36 Z" />
<path fill="#cd2127" d=" M 100.13 333.00 C 100.94 332.86 102.54 332.57 103.34 332.42 C 104.51 337.06 101.17 342.03 96.64 343.10 C 97.52 340.23 98.74 337.46 100.71 335.18 C 100.52 334.45 100.33 333.72 100.13 333.00 Z" />
</svg>
